<svg xmlns="http://www.w3.org/2000/svg" width="38.137" height="27.494" viewBox="0 0 38.137 27.494">
  <path id="download" d="M21.525,19a11.08,11.08,0,0,1,11.017,9.8,8.867,8.867,0,0,1-.818,17.7H10a7.539,7.539,0,0,1,0-15.077h.527A11.089,11.089,0,0,1,21.525,19Zm0,9.312a.886.886,0,0,0-.887.887v9.534l-3.4-3.09a.947.947,0,0,0-1.261.055.9.9,0,0,0,.069,1.261l4.878,4.434a.777.777,0,0,0,.6.222.967.967,0,0,0,.6-.222L27,36.959a.911.911,0,0,0,.069-1.261.928.928,0,0,0-1.261-.055l-3.4,3.09V29.2a.886.886,0,0,0-.887-.887Z" transform="translate(-2.457 -18.999)" fill="#fff"/>
</svg>
