 <svg xmlns="http://www.w3.org/2000/svg" width="22.768" height="18.491" viewBox="0 0 22.768 18.491">
  <path id="twitter" d="M20.081,2.918A4.524,4.524,0,0,0,22.133.346a9.167,9.167,0,0,1-2.962,1.128,4.677,4.677,0,0,0-6.71-.109,4.5,4.5,0,0,0-1.365,3.3,5.171,5.171,0,0,0,.115,1.067A13,13,0,0,1,5.843,4.3,13.233,13.233,0,0,1,1.59.852,4.581,4.581,0,0,0,.954,3.207a4.539,4.539,0,0,0,.564,2.224A4.636,4.636,0,0,0,3.034,7.093,4.665,4.665,0,0,1,.924,6.5v.057A4.5,4.5,0,0,0,1.988,9.526a4.58,4.58,0,0,0,2.68,1.612,4.8,4.8,0,0,1-1.23.158,5.782,5.782,0,0,1-.88-.072A4.682,4.682,0,0,0,6.92,14.462a9.138,9.138,0,0,1-5.792,1.991A9.671,9.671,0,0,1,0,16.4a12.942,12.942,0,0,0,7.165,2.1,13.6,13.6,0,0,0,4.667-.788,11.85,11.85,0,0,0,3.727-2.109,14.074,14.074,0,0,0,2.667-3.042,13.572,13.572,0,0,0,1.667-3.587,13.265,13.265,0,0,0,.548-3.75c0-.269,0-.472-.014-.606a9.751,9.751,0,0,0,2.341-2.414,9.3,9.3,0,0,1-2.687.723" fill="#fff"/>
</svg>